<svg width="783" height="399" viewBox="0 0 783 399" fill="none" xmlns="http://www.w3.org/2000/svg">
<ellipse cx="734" cy="159" rx="3" ry="0.5" fill="#5C5C5C"/>
<path d="M734 159V0.5L552 0.500015" stroke="#393B3D"/>
<line x1="143.5" y1="30.5" x2="143.5" y2="307.5" stroke="#393B3D"/>
<line x1="331.5" y1="30.5" x2="331.5" y2="307.5" stroke="#393B3D"/>
<line x1="4.37114e-08" y1="30" x2="519" y2="30" stroke="#393B3D"/>
<line x1="4.37114e-08" y1="169" x2="519" y2="169" stroke="#393B3D"/>
<line x1="549.354" y1="0.841957" x2="519.354" y2="30.842" stroke="white" stroke-opacity="0.15"/>
<line x1="764" y1="307" x2="686" y2="307" stroke="#393B3D"/>
<line x1="782" y1="151" x2="704" y2="151" stroke="#393B3D"/>
<line x1="764" y1="170" x2="686" y2="170" stroke="#393B3D"/>
<line x1="685.5" y1="307.5" x2="685.5" y2="169.5" stroke="white" stroke-opacity="0.15"/>
<line x1="763.5" y1="307.5" x2="763.5" y2="169.5" stroke="#393B3D"/>
<line x1="781.5" y1="288.5" x2="781.5" y2="150.5" stroke="#393B3D"/>
<line x1="704.342" y1="150.854" x2="685.342" y2="169.854" stroke="#393B3D"/>
<line x1="782.354" y1="150.854" x2="763.354" y2="169.854" stroke="#393B3D"/>
<line x1="782.354" y1="287.854" x2="763.354" y2="306.854" stroke="#393B3D"/>
<line x1="4.37114e-08" y1="307" x2="519" y2="307" stroke="#393B3D"/>
<line x1="519.5" y1="30.5" x2="519.5" y2="307.5" stroke="#393B3D"/>
<circle cx="65" cy="306.5" r="3" fill="#393B3D"/>
<circle cx="425" cy="306.5" r="3" fill="#393B3D"/>
<circle cx="237" cy="30.5" r="3" fill="#393B3D"/>
<path d="M600 399C600 394.2 681.667 334.833 723 306.5" stroke="#393B3D"/>
</svg>
